<svg xmlns="http://www.w3.org/2000/svg" width="32" height="32" viewBox="0 0 32 32">
  <defs>
    <linearGradient id="g1" x1="0%" y1="0%" x2="100%" y2="100%">
      <stop offset="0%" stop-color="#0B1D3A"/>
      <stop offset="100%" stop-color="#1B4965"/>
    </linearGradient>
  </defs>
  <circle cx="16" cy="16" r="15" fill="url(#g1)" stroke="#2E6F8E" stroke-width="0.8"/>
  <!-- Brain hemispheres -->
  <path d="M16 6 C11 6 7.5 9 7.5 13 C7.5 15.5 8.5 17 10 18.5 C10.5 19 10.5 20 10.5 21 L13 21 L13 19 C13 18 12 17 11 16 C9.5 14.5 9.5 12 11 10.5 C12.5 9 14 8.5 16 8.5" fill="none" stroke="#5BA4CF" stroke-width="1.2" stroke-linecap="round"/>
  <path d="M16 6 C21 6 24.5 9 24.5 13 C24.5 15.5 23.5 17 22 18.5 C21.5 19 21.5 20 21.5 21 L19 21 L19 19 C19 18 20 17 21 16 C22.5 14.5 22.5 12 21 10.5 C19.5 9 18 8.5 16 8.5" fill="none" stroke="#5BA4CF" stroke-width="1.2" stroke-linecap="round"/>
  <!-- Central fissure -->
  <line x1="16" y1="6" x2="16" y2="21" stroke="#3D8EB9" stroke-width="0.6" stroke-dasharray="1.5 1"/>
  <!-- Neural nodes -->
  <circle cx="12" cy="12" r="1" fill="#7EC8E3"/>
  <circle cx="20" cy="12" r="1" fill="#7EC8E3"/>
  <circle cx="14" cy="15" r="0.8" fill="#7EC8E3"/>
  <circle cx="18" cy="15" r="0.8" fill="#7EC8E3"/>
  <circle cx="16" cy="10" r="0.8" fill="#7EC8E3"/>
  <!-- Neural connections -->
  <line x1="12" y1="12" x2="14" y2="15" stroke="#7EC8E3" stroke-width="0.4" opacity="0.6"/>
  <line x1="20" y1="12" x2="18" y2="15" stroke="#7EC8E3" stroke-width="0.4" opacity="0.6"/>
  <line x1="14" y1="15" x2="18" y2="15" stroke="#7EC8E3" stroke-width="0.4" opacity="0.6"/>
  <line x1="16" y1="10" x2="12" y2="12" stroke="#7EC8E3" stroke-width="0.4" opacity="0.6"/>
  <line x1="16" y1="10" x2="20" y2="12" stroke="#7EC8E3" stroke-width="0.4" opacity="0.6"/>
  <!-- Brainstem -->
  <path d="M14.5 21 L14 24.5 Q16 26 18 24.5 L17.5 21" fill="none" stroke="#5BA4CF" stroke-width="0.8" stroke-linecap="round"/>
</svg>
